<?xml version="1.0" standalone="no"?>
<!DOCTYPE svg PUBLIC "-//W3C//DTD SVG 20010904//EN"
 "http://www.w3.org/TR/2001/REC-SVG-20010904/DTD/svg10.dtd">
<svg version="1.0" xmlns="http://www.w3.org/2000/svg"
 width="921.000000pt" height="921.000000pt" viewBox="0 0 921.000000 921.000000"
 preserveAspectRatio="xMidYMid meet">
<metadata>
Created by potrace 1.14, written by Peter Selinger 2001-2017
</metadata>
<g transform="translate(0.000000,921.000000) scale(0.100000,-0.100000)"
fill="#000000" stroke="none">
<path d="M6115 7300 c-13 -14 -14 -20 -3 -26 7 -4 10 -4 6 1 -11 12 11 35 28
28 8 -3 14 -3 14 0 0 15 -30 13 -45 -3z"/>
<path d="M6151 7257 c2 -1 13 -9 24 -17 19 -14 19 -14 6 3 -7 9 -18 17 -24 17
-6 0 -8 -1 -6 -3z"/>
<path d="M6197 7249 c7 -7 15 -10 18 -7 3 3 -2 9 -12 12 -14 6 -15 5 -6 -5z"/>
<path d="M6239 7248 c-1 -2 -3 -13 -4 -25 -2 -15 2 -20 13 -15 10 3 13 1 8 -6
-3 -6 -1 -14 5 -18 8 -5 9 -3 4 6 -5 8 -3 11 6 8 8 -3 14 -11 14 -19 1 -8 6
-13 13 -11 7 1 12 -2 12 -7 0 -6 35 -36 78 -68 42 -31 80 -62 83 -67 4 -4 12
-5 18 -2 6 4 10 3 9 -2 -5 -15 112 -113 125 -106 7 4 9 4 5 -1 -5 -4 50 -67
120 -139 427 -438 717 -978 831 -1551 50 -249 56 -317 55 -625 0 -319 -11
-426 -69 -685 -170 -757 -647 -1450 -1297 -1883 -390 -260 -797 -417 -1273
-492 -255 -41 -657 -38 -930 5 -552 88 -1068 323 -1495 679 -101 83 -302 282
-387 381 -73 86 -163 205 -163 216 0 5 44 31 99 58 182 92 311 206 384 341 78
143 105 272 142 676 24 253 26 295 14 320 -19 40 -57 42 -125 8 -29 -15 -61
-34 -71 -43 -10 -9 -34 -29 -53 -44 -194 -157 -351 -400 -450 -694 -40 -120
-80 -291 -80 -344 0 -15 -4 -30 -9 -33 -19 -12 -196 352 -207 424 -5 34 -4 36
68 77 212 121 324 286 377 557 32 166 62 366 56 376 -4 6 -2 10 2 10 5 0 9 24
9 53 1 28 -1 42 -3 30 -3 -13 -9 -23 -14 -23 -6 0 -7 9 -3 22 6 20 5 21 -9 10
-8 -7 -15 -27 -15 -45 1 -18 -2 -40 -7 -50 -4 -9 -5 -28 -3 -42 3 -13 2 -22
-2 -20 -3 2 -17 -60 -29 -138 -44 -270 -88 -398 -181 -521 -59 -78 -245 -218
-264 -199 -3 3 -6 30 -6 59 0 88 49 195 170 374 60 89 118 203 134 268 21 80
21 91 -4 85 -21 -6 -29 20 -10 32 6 4 7 -1 3 -11 -4 -12 -2 -15 8 -12 21 7 17
33 -6 33 -15 0 -20 -7 -21 -30 -1 -16 -6 -48 -12 -69 -6 -22 -9 -43 -6 -48 3
-4 1 -8 -4 -8 -5 0 -16 -17 -25 -37 -22 -53 -52 -103 -125 -211 -35 -51 -60
-98 -56 -104 4 -6 3 -8 -3 -5 -6 4 -16 -7 -23 -23 -15 -36 -39 -59 -41 -39 -8
97 20 290 53 367 10 24 16 48 12 53 -3 5 -1 9 4 9 5 0 13 15 19 33 8 26 6 35
-9 51 -18 19 -18 19 -7 -14 11 -30 10 -35 -9 -50 -12 -10 -18 -20 -15 -24 4
-3 1 -6 -5 -6 -5 0 -12 6 -14 12 -3 7 -7 3 -10 -9 -5 -17 -2 -21 17 -18 16 1
22 -2 18 -11 -2 -7 -11 -10 -19 -7 -8 3 -14 0 -14 -6 0 -6 5 -11 10 -11 6 0
10 -6 10 -12 -1 -7 -10 -2 -22 12 l-21 25 8 -24 c5 -17 4 -22 -5 -16 -10 6
-11 1 -6 -19 4 -17 2 -26 -5 -26 -6 0 -9 -9 -6 -20 3 -11 1 -18 -3 -15 -13 8
-33 -132 -33 -227 0 -49 -3 -88 -7 -88 -6 0 -52 192 -65 275 -10 66 -16 80
-26 64 -12 -20 -11 3 1 37 9 24 9 25 -5 14 -8 -7 -13 -16 -10 -20 3 -5 0 -12
-6 -16 -9 -5 -10 1 -5 20 4 18 3 25 -4 21 -12 -8 -13 -52 -1 -59 5 -3 7 -14 4
-24 -4 -15 33 -219 53 -289 8 -28 -8 -30 -44 -4 -59 41 -183 101 -209 101 -23
0 -25 2 -13 11 12 8 10 9 -10 5 -14 -3 -31 -6 -37 -6 -7 0 -13 -4 -13 -9 0 -5
8 -7 19 -4 10 3 22 0 25 -6 5 -7 1 -8 -11 -4 -33 12 -9 -4 65 -42 63 -32 75
-35 90 -24 15 13 16 12 4 -2 -11 -15 -8 -20 22 -39 20 -12 41 -18 47 -14 7 4
9 3 6 -3 -3 -5 14 -25 39 -44 69 -51 82 -93 21 -70 -20 8 -109 24 -302 56 -16
3 -51 10 -77 16 -26 6 -53 7 -60 3 -7 -4 -10 -3 -5 1 4 5 -5 14 -20 20 -22 9
-33 9 -50 -3 -23 -14 -32 -5 -13 14 7 7 -2 16 -31 27 -35 14 -44 14 -61 3 -18
-13 -18 -14 1 -19 14 -3 18 -1 14 9 -8 22 7 16 33 -11 13 -14 19 -25 14 -25
-5 0 -12 5 -15 10 -4 6 -11 7 -17 4 -26 -16 166 -77 342 -109 195 -34 241 -45
280 -65 38 -19 60 -56 46 -78 -21 -35 -261 -48 -406 -23 -91 16 -290 80 -290
94 0 5 -8 3 -17 -4 -12 -10 -15 -10 -9 -1 5 8 -3 17 -23 25 -17 7 -28 17 -24
22 5 4 0 5 -9 2 -11 -4 -17 -2 -15 6 1 7 -4 11 -11 9 -7 -1 -15 5 -19 13 -5
14 -8 14 -24 -1 -11 -9 -19 -12 -19 -6 0 6 5 14 11 17 12 8 -17 45 -34 45 -6
0 -2 -7 9 -15 19 -15 19 -16 -1 -13 -11 2 -23 8 -27 13 -5 6 -8 5 -8 -4 0 -11
-3 -11 -18 0 -16 13 -16 12 1 -7 12 -15 25 -20 44 -16 18 3 24 1 19 -7 -4 -6
-12 -9 -17 -6 -22 14 -6 -4 17 -20 22 -14 28 -15 36 -4 8 11 9 10 4 -3 -6 -21
47 -63 65 -52 8 4 9 3 5 -4 -8 -13 102 -67 204 -100 179 -59 447 -67 571 -17
12 4 20 -6 34 -42 10 -26 49 -113 86 -192 38 -79 69 -146 69 -149 0 -2 -7 -1
-16 2 -42 16 -177 48 -264 62 -110 17 -310 17 -421 -1 -90 -15 -292 -70 -319
-87 -37 -23 -25 -62 33 -111 181 -154 386 -244 640 -281 197 -30 379 -11 503
52 l61 31 47 -64 c26 -36 86 -108 134 -162 447 -505 989 -832 1642 -992 277
-68 628 -100 891 -82 479 34 845 129 1238 324 157 78 196 101 346 200 780 515
1289 1356 1391 2298 23 210 15 583 -16 784 -68 444 -211 830 -455 1229 -38 61
-139 201 -199 276 -141 174 -344 383 -366 375 -8 -4 -11 -3 -7 1 4 4 0 16 -10
26 -18 20 -38 25 -27 6 4 -8 3 -10 -2 -5 -5 5 -9 14 -9 20 0 6 -36 40 -80 76
-43 36 -75 59 -70 51 5 -8 -6 0 -25 18 -35 35 -75 56 -91 47 -5 -4 -6 0 -3 8
3 8 0 18 -7 23 -7 4 -10 3 -6 -3 4 -6 0 -16 -7 -22 -12 -10 -13 -8 -9 10 4 15
-1 27 -18 40 -22 17 -37 23 -40 17z m21 -18 c0 -5 -4 -10 -10 -10 -5 0 -10 5
-10 10 0 6 5 10 10 10 6 0 10 -4 10 -10z m155 -120 c3 -6 -1 -7 -9 -4 -18 7
-21 14 -7 14 6 0 13 -4 16 -10z m-4255 -2570 c0 -5 -5 -10 -11 -10 -5 0 -7 5
-4 10 3 6 8 10 11 10 2 0 4 -4 4 -10z m-10 -30 c0 -5 -5 -10 -11 -10 -5 0 -7
5 -4 10 3 6 8 10 11 10 2 0 4 -4 4 -10z m-3 -62 c-3 -8 -6 -5 -6 6 -1 11 2 17
5 13 3 -3 4 -12 1 -19z m460 -367 c-12 -206 -52 -538 -77 -637 -24 -96 -85
-222 -140 -291 -53 -67 -162 -149 -282 -213 -96 -51 -98 -51 -98 -28 0 36 54
222 89 307 36 85 94 195 178 336 110 184 196 365 187 390 -4 8 -14 15 -23 15
-13 0 -32 -30 -65 -103 -26 -57 -87 -172 -136 -256 -164 -282 -212 -385 -259
-562 -14 -53 -30 -96 -36 -95 -18 2 -10 185 14 294 65 299 219 602 395 775 97
96 230 191 250 179 5 -3 6 -52 3 -111z m-962 99 c3 -5 -1 -10 -10 -10 -9 0
-13 5 -10 10 3 6 8 10 10 10 2 0 7 -4 10 -10z m-14 -47 c-12 -20 -14 -14 -5
12 4 9 9 14 11 11 3 -2 0 -13 -6 -23z m-170 -44 c-5 -13 -10 -19 -10 -12 -1
15 10 45 15 40 3 -2 0 -15 -5 -28z m-434 -335 c-3 -3 -12 -4 -19 -1 -8 3 -5 6
6 6 11 1 17 -2 13 -5z m0 -20 c-3 -3 -12 -4 -19 -1 -8 3 -5 6 6 6 11 1 17 -2
13 -5z m-222 -132 c-3 -3 -11 0 -18 7 -9 10 -8 11 6 5 10 -3 15 -9 12 -12z
m729 -518 c116 -20 227 -56 266 -85 49 -37 80 -67 80 -78 0 -13 -83 -20 -313
-26 -214 -6 -323 3 -420 36 -45 15 -62 17 -73 8 -23 -19 1 -45 58 -62 105 -33
203 -39 504 -33 l291 7 17 -27 c10 -14 16 -27 14 -29 -2 -1 -27 -15 -57 -30
-185 -93 -553 -66 -819 60 -75 36 -236 141 -266 174 -17 19 -16 20 51 40 249
72 439 85 667 45z"/>
<path d="M2435 3598 c-2 -7 -11 -42 -20 -77 -21 -88 -67 -170 -142 -253 -62
-69 -82 -106 -68 -127 10 -18 34 -12 46 10 6 12 37 50 69 84 31 33 73 90 93
126 36 66 80 210 70 235 -6 17 -42 18 -48 2z"/>
<path d="M5895 7200 c-3 -6 1 -7 9 -4 18 7 21 14 7 14 -6 0 -13 -4 -16 -10z"/>
<path d="M5986 7171 c-17 -6 -17 -8 -4 -14 10 -3 19 0 22 9 3 8 4 14 3 13 -1
0 -11 -4 -21 -8z"/>
<path d="M6023 7147 c-13 -5 -23 -14 -23 -18 0 -15 22 -21 33 -9 10 10 8 11
-8 6 -13 -5 -16 -4 -10 2 6 6 19 12 30 14 11 2 16 6 10 9 -5 4 -20 2 -32 -4z"/>
<path d="M6053 7117 c-3 -6 -1 -7 5 -3 7 4 12 2 12 -3 0 -6 -6 -11 -12 -11 -9
0 -8 -3 2 -10 17 -11 43 7 33 23 -3 6 -1 7 6 3 8 -6 9 -12 2 -20 -8 -9 -7 -17
2 -28 16 -20 74 -57 64 -40 -5 6 -4 12 2 12 6 0 11 -6 11 -13 0 -8 9 -22 20
-32 11 -10 20 -14 20 -10 0 5 6 2 13 -6 6 -9 44 -40 82 -69 478 -368 828 -870
1009 -1450 141 -452 166 -961 70 -1440 -130 -654 -503 -1264 -1029 -1684 -436
-348 -928 -554 -1490 -621 -172 -21 -592 -16 -745 9 -461 75 -841 223 -1210
472 -209 140 -385 299 -613 552 -42 46 -49 49 -67 27 -16 -20 -7 -34 115 -169
417 -461 984 -785 1595 -911 370 -76 790 -80 1152 -10 936 180 1709 777 2124
1640 320 667 376 1423 158 2142 -128 423 -351 809 -658 1141 -104 113 -285
277 -302 276 -8 -1 -12 2 -9 6 8 13 -203 163 -216 154 -8 -4 -9 -3 -5 4 4 7
-13 24 -45 44 -55 33 -86 41 -96 25z m81 -25 c3 -5 -1 -9 -9 -9 -8 0 -12 4 -9
9 3 4 7 8 9 8 2 0 6 -4 9 -8z"/>
<path d="M6024 6624 c3 -8 2 -13 -3 -10 -5 3 -11 0 -14 -8 -9 -23 -175 -245
-256 -341 -323 -387 -799 -836 -1276 -1203 -66 -51 -153 -125 -194 -165 -84
-82 -83 -86 -28 93 56 185 165 536 203 657 20 62 32 118 28 124 -4 7 -3 10 2
6 5 -3 22 38 37 91 15 54 35 120 44 147 9 28 16 58 16 68 -1 9 3 17 8 17 6 0
7 9 4 20 -4 11 -2 20 4 20 6 0 11 5 11 10 0 6 -7 10 -15 10 -8 0 -15 -4 -15
-10 0 -5 -7 -10 -15 -10 -19 0 -19 -14 -1 -43 12 -18 12 -24 1 -34 -18 -17
-39 9 -30 37 6 20 5 20 -17 8 -12 -7 -28 -21 -35 -30 -7 -9 -29 -22 -48 -28
-19 -6 -35 -16 -35 -22 0 -6 -9 -8 -19 -5 -17 4 -19 0 -15 -32 2 -20 1 -27 -2
-16 -3 11 -11 25 -16 30 -8 7 -9 4 -4 -8 3 -10 6 -30 6 -43 0 -14 3 -23 8 -21
4 3 7 -7 7 -23 0 -15 -5 -26 -11 -23 -6 2 -10 11 -10 21 0 9 -1 31 -3 47 l-2
30 -14 -33 c-8 -18 -16 -43 -18 -55 -2 -12 -11 -38 -19 -57 -35 -78 -118 -335
-113 -347 2 -8 1 -12 -4 -9 -4 3 -15 -16 -24 -42 -8 -26 -32 -94 -53 -152 -20
-58 -81 -235 -136 -395 -55 -159 -120 -348 -144 -420 -25 -71 -56 -161 -69
-200 -164 -491 -469 -1325 -566 -1549 l-39 -89 93 7 c195 14 282 57 339 171 9
17 31 82 51 145 19 63 101 329 182 590 81 261 177 573 213 692 37 120 69 218
72 218 3 0 56 -102 119 -226 413 -821 908 -1511 1182 -1648 86 -43 149 -47
234 -15 54 20 165 113 165 138 0 5 -77 77 -172 158 -379 325 -696 673 -944
1033 -119 173 -454 708 -454 725 0 2 71 52 158 111 281 192 636 453 826 608
54 45 113 92 131 106 68 54 225 199 338 314 223 225 336 387 388 551 26 83 2
325 -32 325 -6 0 -8 -7 -5 -16z"/>
<path d="M4621 6324 c0 -11 3 -14 6 -6 3 7 2 16 -1 19 -3 4 -6 -2 -5 -13z"/>
<path d="M4613 6205 c-6 -6 -8 -18 -3 -24 5 -9 9 -5 13 10 7 28 6 31 -10 14z"/>
<path d="M4426 6193 c-6 -14 -5 -15 5 -6 7 7 10 15 7 18 -3 3 -9 -2 -12 -12z"/>
<path d="M4407 6141 c-3 -13 -10 -20 -16 -16 -7 4 -8 0 -5 -10 6 -14 8 -13 21
5 8 11 13 26 11 32 -3 7 -7 2 -11 -11z"/>
<path d="M4433 6123 c-7 -2 -13 -10 -13 -17 0 -7 -9 -21 -20 -31 -11 -10 -20
-23 -20 -28 0 -6 11 0 24 12 15 14 30 20 38 16 10 -6 10 -5 1 5 -8 9 -9 19 -2
32 5 10 8 18 7 17 -2 0 -9 -3 -15 -6z"/>
<path d="M4540 6091 c0 -5 5 -13 10 -16 6 -3 10 -2 10 4 0 5 -4 13 -10 16 -5
3 -10 2 -10 -4z"/>
<path d="M4361 6054 c0 -11 3 -14 6 -6 3 7 2 16 -1 19 -3 4 -6 -2 -5 -13z"/>
<path d="M3675 5638 c-3 -7 -1 -26 4 -43 9 -28 10 -28 8 12 -2 45 -5 51 -12
31z"/>
<path d="M3660 5561 c0 -14 -6 -21 -19 -21 -10 0 -24 -7 -31 -15 -7 -8 -18
-15 -25 -15 -7 0 -15 -9 -18 -20 -4 -17 -11 -20 -34 -15 -23 4 -22 3 7 -8 31
-12 32 -14 12 -19 -12 -4 -20 -2 -16 3 3 5 -2 9 -10 9 -22 0 -20 -17 3 -30 25
-13 34 -13 26 0 -11 18 6 10 23 -10 17 -20 118 -45 127 -30 2 3 -1 25 -7 49
-8 31 -13 39 -20 29 -7 -9 -8 -7 -3 7 17 44 17 75 1 90 -15 15 -16 15 -16 -4z
m17 -33 c-3 -8 -6 -5 -6 6 -1 11 2 17 5 13 3 -3 4 -12 1 -19z m-30 -54 c-3 -3
-12 -4 -19 -1 -8 3 -5 6 6 6 11 1 17 -2 13 -5z"/>
<path d="M3465 5552 c-10 -7 -18 -32 -10 -32 2 0 9 9 15 20 12 22 11 24 -5 12z"/>
<path d="M3475 5490 c-3 -5 -1 -10 5 -10 6 0 8 -5 4 -12 -4 -7 -3 -8 4 -4 6 4
9 13 5 21 -6 18 -10 19 -18 5z"/>
<path d="M1899 4663 c-13 -16 -12 -17 4 -4 9 7 17 15 17 17 0 8 -8 3 -21 -13z"/>
<path d="M2141 4664 c0 -11 3 -14 6 -6 3 7 2 16 -1 19 -3 4 -6 -2 -5 -13z"/>
<path d="M2181 4644 c0 -11 3 -14 6 -6 3 7 2 16 -1 19 -3 4 -6 -2 -5 -13z"/>
<path d="M2150 4630 c0 -5 5 -10 10 -10 6 0 10 5 10 10 0 6 -4 10 -10 10 -5 0
-10 -4 -10 -10z"/>
<path d="M1866 4618 c3 -5 10 -6 15 -3 13 9 11 12 -6 12 -8 0 -12 -4 -9 -9z"/>
<path d="M1814 4558 c-4 -7 -4 -10 1 -6 4 4 15 2 24 -5 14 -11 14 -10 2 6 -16
20 -18 21 -27 5z"/>
<path d="M1757 4445 c3 -8 9 -12 14 -9 12 7 11 11 -5 17 -10 4 -13 1 -9 -8z"/>
<path d="M1732 4428 c7 -15 15 -23 17 -17 2 6 -4 18 -13 27 -15 15 -15 15 -4
-10z"/>
<path d="M1701 4400 c0 -8 4 -22 9 -30 12 -18 12 -2 0 25 -6 13 -9 15 -9 5z"/>
<path d="M1270 4145 c-9 -10 -9 -15 -1 -15 6 0 11 -5 11 -11 0 -6 -7 -9 -14
-6 -11 4 -13 1 -9 -11 10 -28 25 -43 39 -38 7 3 16 1 20 -5 7 -12 34 8 34 25
0 6 -5 3 -11 -7 -10 -17 -12 -17 -31 5 -15 17 -19 18 -15 6 4 -10 2 -18 -3
-18 -16 0 -22 20 -11 34 6 7 9 21 5 30 -5 12 -2 15 12 9 12 -4 15 -3 10 5 -10
16 -21 15 -36 -3z"/>
<path d="M1319 4143 c0 -5 -2 -18 -5 -30 -2 -13 0 -23 5 -23 5 0 8 8 6 18 -1
9 2 23 8 30 6 8 6 12 -2 12 -6 0 -11 -3 -12 -7z"/>
<path d="M1347 4123 c-10 -9 -9 -23 1 -23 5 0 9 7 9 15 0 17 -1 18 -10 8z"/>
<path d="M937 4023 c-3 -5 6 -9 20 -10 19 -1 22 1 12 8 -17 11 -26 11 -32 2z"/>
<path d="M1094 3976 c-10 -8 -16 -18 -12 -21 10 -11 40 3 33 15 -3 6 1 7 9 4
9 -3 14 -9 11 -14 -2 -4 8 -5 23 -3 23 3 24 2 7 -6 -18 -9 -17 -10 8 -10 36
-1 27 15 -20 34 -43 18 -35 18 -59 1z"/>
<path d="M1130 3930 c8 -5 20 -10 25 -10 6 0 3 5 -5 10 -8 5 -19 10 -25 10 -5
0 -3 -5 5 -10z"/>
<path d="M799 3853 c-13 -16 -12 -17 4 -4 9 7 17 15 17 17 0 8 -8 3 -21 -13z"/>
<path d="M843 3824 c0 -16 6 -17 25 -5 11 6 9 9 -5 13 -12 3 -20 0 -20 -8z"/>
<path d="M529 3813 c-13 -16 -12 -17 4 -4 9 7 17 15 17 17 0 8 -8 3 -21 -13z"/>
<path d="M620 3749 c0 -5 -4 -7 -10 -4 -14 9 -12 -1 3 -13 10 -8 13 -6 14 9 1
10 0 19 -3 19 -2 0 -4 -5 -4 -11z"/>
<path d="M645 3741 c-6 -11 13 -26 22 -17 4 3 1 6 -6 6 -7 0 -9 5 -6 10 3 6 4
10 1 10 -3 0 -7 -4 -11 -9z"/>
<path d="M838 3374 c-34 -18 -48 -43 -48 -86 0 -67 65 -118 124 -98 45 15 67
41 73 89 5 36 2 44 -30 76 -39 39 -73 44 -119 19z"/>
<path d="M1431 3364 c-12 -15 -21 -32 -21 -39 0 -24 41 -65 66 -65 31 0 64 33
64 65 0 32 -33 65 -64 65 -15 0 -33 -11 -45 -26z"/>
</g>
</svg>
